<?xml version="1.0" encoding="UTF-8" standalone="no"?>
<!DOCTYPE svg PUBLIC "-//W3C//DTD SVG 1.1//EN" "http://www.w3.org/Graphics/SVG/1.1/DTD/svg11.dtd">
<svg xmlns="http://www.w3.org/2000/svg" xmlns:xlink="http://www.w3.org/1999/xlink" version="1.1" width="375pt" height="375pt" viewBox="0 0 375 375">
<g enable-background="new">
<clipPath id="cp0">
<path transform="matrix(.24,0,0,.24,0,0)" d="M 0 0 L 1562.5 0 L 1562.5 1593.75 L 0 1593.75 Z " fill-rule="evenodd"/>
</clipPath>
<g clip-path="url(#cp0)">
<path transform="matrix(.75,0,0,.75,0,0)" d="M 0 0 L 500 0 L 500 510 L 0 510 Z " fill="#ffffff"/>
</g>
<clipPath id="cp1">
<path transform="matrix(.24,0,0,.24,0,0)" d="M 0 0 L 1562.5 0 L 1562.5 1562.5 L 0 1562.5 Z " fill-rule="evenodd"/>
</clipPath>
<g clip-path="url(#cp1)">
<path transform="matrix(.75,0,0,.75,0,0)" d="M 0 0 L 500 0 L 500 500 L 0 500 Z " fill="#ffffff"/>
</g>
<clipPath id="cp2">
<path transform="matrix(.24,0,0,.24,0,0)" d="M 0 0 L 1562.5 0 L 1562.5 1562.5 L 0 1562.5 Z " fill-rule="evenodd"/>
</clipPath>
<g clip-path="url(#cp2)">
<path transform="matrix(.75,0,0,.75,0,0)" d="M 0 0 L 500 0 L 500 500 L 0 500 Z " fill="#1c1c1c"/>
</g>
<clipPath id="cp3">
<path transform="matrix(.24,0,0,.24,0,0)" d="M 425.47627 339.15028 L 1137.9763 339.15028 L 1137.9763 729.77529 L 425.47627 729.77529 Z " fill-rule="evenodd"/>
</clipPath>
<g clip-path="url(#cp3)">
<path transform="matrix(.41783748,0,0,.41643197,102.114299,81.495349)" d="M 264.46 50.99 L 256.59 98.380008 C 259.23 97.62 261.9 96.450008 264.51 95.55 C 271.47 93.14 280.43003 89.420009 287.65003 86.71001 C 292.76 84.79001 298.06004 82.75001 303.11003 80.78001 C 305.19 79.97001 317.74003 75.33001 318.54 74.79001 C 317.78 73.02001 310.71003 66.01001 309.06 64.79001 C 308.16 64.130008 307.34 63.35001 306.35 62.680009 C 305.36003 62.01001 304.48 61.370008 303.39 60.63001 C 297.72 56.750009 289.54 53.430009 282.53004 52.01001 C 277.60005 51.01001 269.54005 50.14001 264.46003 50.99001 L 264.46 50.99 Z M 214.88999 84.98 C 215.64998 85.94 224.11998 92.82001 225.85999 94.4 C 230.26999 98.41 236.93999 103.520008 241.49999 107.67 C 244.00998 109.95 247.76999 112.86 250.48999 115.229999 C 250.62 115.03 250.52999 115.259998 250.65999 114.829998 L 261.15998 51.339994 C 246.91997 53.34999 236.68997 59.429994 227.59998 67.689998 C 225.81998 69.31 224.54998 70.95 222.77997 72.88999 C 222.06996 73.66999 221.17996 74.799999 220.57997 75.69999 C 218.82997 78.30999 218.37998 78.75999 216.63997 81.77999 C 216.07997 82.73999 215.48998 84.10999 214.89997 84.98999 L 214.88999 84.98 Z M 276.16999 94.48 C 276.63999 94.83 277.05 95.28001 277.56999 95.68 C 278.13999 96.12 278.53999 96.47 279.17997 96.96 C 279.76997 97.409999 280.20997 97.659999 280.84999 98.19 L 287.21998 103.200008 C 287.78999 103.630008 288.24998 104.08 288.79997 104.50001 C 289.95997 105.39001 290.73997 106.07001 291.91996 106.97001 L 317.36997 126.990009 C 318.45997 127.78001 319.56999 128.70001 320.63996 129.51001 L 326.91996 134.45001 C 328.54997 131.24 330.12995 124.390018 330.65995 120.27001 C 332.33995 107.31001 330.10997 94.49001 324.01994 83.16001 C 322.89994 81.08001 321.71995 79.37001 320.63993 77.49001 L 276.16993 94.48001 L 276.16999 94.48 Z M 278.28999 172.61 C 282.56999 172.58 291.00999 169.64 294.50999 168.12 C 299.66999 165.87999 306.49998 161.65 310.28999 158.08 C 311.3 157.13 312.08998 156.49 312.99998 155.59 C 313.93998 154.66 314.53999 153.9 315.53999 152.93 C 316.33998 152.15 317.06999 151.06 317.8 150.17 C 319.87 147.64 324.83 140.52 325.63999 137.38 L 289.43 109.020008 C 288.8 110.29 288.25999 115.21001 287.94 117.020008 L 281.06 156.77 C 280.15 161.96 279.38999 167.55 278.3 172.61 L 278.28999 172.61 Z M 282.96 126.89 L 221.46999 149.36 C 223.34999 151.88 226.07999 154.97 228.43999 156.97 C 229.23999 157.64 230.10999 158.65 230.97998 159.24 C 232.66999 160.40001 234.32999 161.95001 236.64998 163.40001 C 243.27999 167.56002 249.13999 170.1 257.24 171.91 C 260.91999 172.73001 271.43 173.94 275.06 172.94 L 282.97 126.89 L 282.96 126.89 Z M 213.54999 88.14 C 212.72998 89.479999 211.56999 93.26 211.05998 95.07 C 206.60999 110.57 208.48998 126.82 215.96999 140.91 L 219.38999 146.65001 C 221.65999 146.05 227.82999 143.58 230.64998 142.6 C 234.37998 141.3 237.96999 139.93001 241.66999 138.59001 C 245.33998 137.27 249.01999 135.94002 252.67998 134.57 C 253.67998 134.20001 262.89997 131.14002 263.63999 130.39002 L 213.54999 88.140018 L 213.54999 88.14 Z " fill="#f054b0" fill-rule="evenodd"/>
<path transform="matrix(.41783748,0,0,.41643197,102.114299,81.495349)" d="M 69.94 41.45 L 26.470002 41.45 C 20.86 41.45 16.27 46.04 16.27 51.65 C 16.27 57.260004 20.86 61.850004 26.470002 61.850004 L 69.94 61.850004 C 75.55 61.850004 80.14 57.260004 80.14 51.65 C 80.14 46.04 75.55 41.45 69.94 41.45 Z " fill="#f054b0" fill-rule="evenodd"/>
<path transform="matrix(.41783748,0,0,.41643197,102.114299,81.495349)" d="M 274.05 185.95 C 272.68 186.03 271.3 186.06 269.90998 186.06 C 269.77998 186.06 269.63999 186.06 269.50999 186.06 C 269.37998 186.06 269.24998 186.06 269.11 186.06 C 228.41999 186.06 195.41999 153.06 195.41999 112.369998 C 195.41999 71.67999 228.41999 38.679994 269.11 38.679994 C 269.24 38.679994 269.37 38.679994 269.50999 38.679994 C 269.63999 38.679994 269.77 38.679994 269.90998 38.679994 C 271.3 38.679994 272.67997 38.719995 274.05 38.789995 C 312.81999 40.939996 343.59999 73.06 343.59999 112.369998 C 343.59999 151.67 312.81999 183.79999 274.05 185.95 Z M 331.37 .13999939 L 271.4 .13999939 C 270.77 .10999939 270.15 .09999938 269.52 .09999938 C 268.88999 .089999388 268.27 .09999938 267.63999 .13999939 L 162.15998 .13999939 C 156.54998 .13999939 151.95998 4.7299997 151.95998 10.339999 C 151.95998 15.949999 156.54998 20.539999 162.15998 20.539999 L 203.75998 20.539999 L 203.96999 20.539999 C 204.05998 20.539999 204.13999 20.55 204.22998 20.55 L 204.23998 20.55 C 204.40998 20.56 204.57997 20.57 204.74997 20.59 L 204.75997 20.59 C 204.83997 20.6 204.92996 20.61 205.00997 20.62 C 205.25997 20.650002 205.50997 20.69 205.75997 20.740002 L 205.76996 20.740002 L 206.00997 20.79 L 206.24997 20.85 L 206.48998 20.92 L 206.71997 20.99 L 206.72997 20.99 L 206.73996 20.99 L 206.96996 21.06 L 206.97995 21.06 L 206.98995 21.06 L 207.13994 21.109999 C 207.32994 21.179999 207.51995 21.249999 207.70995 21.329998 C 211.35994 22.889998 213.92995 26.519999 213.92995 30.719998 C 213.92995 36.329999 209.33995 40.92 203.72995 40.92 L 111.48995 40.92 C 105.87995 40.92 101.289958 45.51 101.289958 51.12 C 101.289958 56.73 105.87996 61.32 111.48995 61.32 L 150.91996 61.32 L 151.12996 61.32 L 151.17996 61.32 L 151.36997 61.329999 L 151.44997 61.329999 L 151.62996 61.339998 L 151.68996 61.339998 L 151.91996 61.359998 L 151.92995 61.359998 L 151.93994 61.359998 L 152.15995 61.379999 L 152.22995 61.389997 L 152.39995 61.409997 L 152.46996 61.419996 L 152.67996 61.449995 L 152.69997 61.449995 L 152.92996 61.489995 L 152.98996 61.499994 L 153.15996 61.539995 L 153.22997 61.559995 L 153.40996 61.599996 L 153.44995 61.609994 L 153.66996 61.669996 L 153.71996 61.679994 L 153.88996 61.729993 L 153.95996 61.749994 L 154.10996 61.79999 L 154.17996 61.819993 L 154.38997 61.88999 L 154.40998 61.89999 L 154.59998 61.96999 L 154.65998 61.98999 L 154.81998 62.04999 L 154.87998 62.07999 L 155.07997 62.16999 L 155.08997 62.16999 L 155.28997 62.26999 L 155.34996 62.299989 L 155.49996 62.369989 L 155.55995 62.399988 L 155.71996 62.489988 L 155.74996 62.509988 L 155.94995 62.619989 L 155.98995 62.639989 L 156.13994 62.72999 L 156.19994 62.759988 L 156.34993 62.849988 L 156.38993 62.879987 L 156.57993 62.999986 L 156.60993 63.019987 L 156.75992 63.129987 L 156.81992 63.169988 L 156.94992 63.269987 L 156.99993 63.309988 L 157.17992 63.449987 L 157.34992 63.589986 L 157.39992 63.629987 L 157.52993 63.739988 L 157.57993 63.779989 L 157.72992 63.90999 L 157.74993 63.92999 L 157.90993 64.07999 L 157.94992 64.11999 L 158.06992 64.23999 L 158.11992 64.28999 L 158.23992 64.409999 L 158.2799 64.45 L 158.4299 64.61 L 158.4599 64.64 L 158.5799 64.77 L 158.6299 64.82 L 158.7399 64.95 L 158.7699 64.99 L 158.9099 65.17 L 158.91989 65.18 L 159.0499 65.340007 L 159.08989 65.4 L 159.17989 65.520008 L 159.21988 65.58 L 159.33988 65.75 L 159.34987 65.77 L 159.47988 65.96 L 159.50988 66 L 159.59987 66.15 L 159.62987 66.21 L 159.71987 66.37 L 159.73987 66.4 L 159.84987 66.6 L 159.87987 66.65 L 159.95987 66.8 L 159.98987 66.86 L 160.06987 67.01 L 160.08988 67.060009 L 160.18988 67.26 L 160.19988 67.29 L 160.27988 67.47 L 160.30988 67.53 L 160.36988 67.69 L 160.38988 67.75 L 160.39987 67.79 C 160.47988 67.98 160.53987 68.18 160.60988 68.38 C 160.91988 69.36 161.08988 70.39 161.08988 71.46999 C 161.08988 77.079998 156.49988 81.66999 150.88988 81.66999 L 146.52988 81.66999 L 54.299875 81.66999 C 48.689874 81.66999 44.099874 86.259998 44.099874 91.86999 C 44.099874 97.47999 48.689874 102.069988 54.299875 102.069988 L 129.32987 102.069988 L 129.31987 102.09998 C 129.57987 102.11998 129.82987 102.14999 130.07987 102.179988 C 134.98987 102.90999 138.77986 107.16998 138.77986 112.26999 C 138.77986 117.36999 134.98987 121.62999 130.07987 122.359989 C 129.82987 122.39999 129.57987 122.429988 129.31987 122.43999 L 129.32987 122.469989 L 75.23987 122.469989 C 69.62987 122.469989 65.03987 127.05998 65.03987 132.66999 C 65.03987 138.27999 69.62987 142.86998 75.23987 142.86998 L 146.52988 142.86998 L 150.88988 142.86998 C 156.49988 142.86998 161.08988 147.45998 161.08988 153.06998 C 161.08988 154.14998 160.91988 155.17998 160.60988 156.15998 C 160.54988 156.35997 160.47988 156.54998 160.39987 156.74997 L 160.38988 156.77997 L 160.36988 156.83997 L 160.30988 156.98996 L 160.27988 157.05997 L 160.20987 157.22997 L 160.19988 157.25997 L 160.10988 157.45996 L 160.07988 157.51996 L 160.00988 157.66996 L 159.97988 157.73996 L 159.90987 157.87996 L 159.87987 157.93996 L 159.76987 158.12996 L 159.74987 158.16996 L 159.65987 158.31995 L 159.61988 158.37995 L 159.52988 158.51995 L 159.49988 158.56995 L 159.37989 158.75995 L 159.35988 158.78995 L 159.24988 158.94995 L 159.19988 159.00995 L 159.10988 159.12995 L 159.06989 159.18994 L 158.94989 159.34995 L 158.92989 159.36995 L 158.78989 159.53995 L 158.7499 159.57994 L 158.6399 159.70995 L 158.58989 159.75995 L 158.47989 159.88996 L 158.4399 159.92995 L 158.2899 160.08995 L 158.24991 160.12995 L 158.12992 160.24994 L 158.07991 160.29994 L 157.95992 160.41994 L 157.91992 160.45993 L 157.75992 160.60993 L 157.72992 160.62993 L 157.58992 160.74993 L 157.53992 160.79993 L 157.41992 160.89994 L 157.35993 160.94994 L 157.19992 161.07994 L 157.18993 161.08994 L 157.01993 161.21994 L 156.96993 161.25994 L 156.83992 161.35994 L 156.77993 161.39994 L 156.62993 161.50994 L 156.59993 161.52994 L 156.40993 161.64994 L 156.36994 161.67993 L 156.21994 161.76993 L 156.15995 161.79993 L 156.00995 161.88993 L 155.96996 161.90993 L 155.76996 162.01993 L 155.73996 162.03993 L 155.57996 162.12993 L 155.51996 162.15993 L 155.36997 162.22994 L 155.30997 162.25994 L 155.10997 162.35994 L 155.09998 162.36994 L 154.89998 162.45993 L 154.83998 162.48993 L 154.67998 162.54993 L 154.61998 162.56993 L 154.42998 162.63994 L 154.40998 162.64994 L 154.19997 162.71994 L 154.12996 162.73995 L 153.97997 162.78995 L 153.90996 162.80995 L 153.73996 162.85996 L 153.68996 162.86995 L 153.46996 162.92995 L 153.42996 162.93994 L 153.24997 162.97994 L 153.17996 162.99994 L 153.13997 163.00994 C 152.57997 163.12993 152.02997 163.20993 151.48998 163.23993 L 151.42998 163.23993 L 151.29998 163.24993 L 151.23998 163.24993 L 151.18997 163.24993 L 150.97997 163.24993 L 111.549968 163.24993 C 105.939968 163.24993 101.34997 167.83992 101.34997 173.44992 C 101.34997 179.05992 105.93997 183.64992 111.549968 183.64992 L 203.78997 183.64992 C 209.39997 183.64992 213.98996 188.23992 213.98996 193.84992 C 213.98996 198.04991 211.41996 201.67992 207.76996 203.23992 C 207.57996 203.31992 207.38996 203.39992 207.19995 203.45992 L 207.78995 204.04991 L 162.22995 204.04991 C 156.61995 204.04991 152.02996 208.63991 152.02996 214.24991 C 152.02996 219.85991 156.61995 224.4499 162.22995 224.4499 L 267.71995 224.4499 L 267.66996 224.4499 C 268.30998 224.4799 268.94996 224.49991 269.58998 224.4899 C 270.22999 224.4999 270.86997 224.4899 271.50999 224.4499 L 271.46 224.4499 L 331.43 224.4499 L 347.46 224.4499 C 381.47999 224.4499 409.31 196.6199 409.31 162.59992 L 409.31 142.81992 L 409.31 122.40991 L 409.31 101.99991 L 409.31 81.589908 L 409.31 61.809907 C 409.31 27.789906 381.48 -.04009247 347.46 -.04009247 L 331.43 -.04009247 L 331.37 .13999939 Z " fill="#45f3ff" fill-rule="evenodd"/>
<path transform="matrix(.41783748,0,0,.41643197,102.114299,81.495349)" d="M 45.89 122.52 L 24.15 122.52 C 18.539999 122.52 13.95 127.11 13.95 132.72 C 13.95 138.33 18.54 142.92 24.15 142.92 L 45.89 142.92 C 51.5 142.92 56.09 138.33 56.09 132.72 C 56.09 127.11 51.5 122.520008 45.89 122.520008 L 45.89 122.52 Z " fill="#f054b0" fill-rule="evenodd"/>
<path transform="matrix(.41783748,0,0,.41643197,102.114299,81.495349)" d="M 130.06 203.97 L 49.369997 203.97 C 43.759996 203.97 39.169996 208.56 39.169996 214.17 C 39.169996 219.78 43.759996 224.37 49.369997 224.37 L 130.06 224.37 C 135.67 224.37 140.26 219.78 140.26 214.17 C 140.26 208.56 135.67 203.97 130.06 203.97 Z " fill="#f054b0" fill-rule="evenodd"/>
<path transform="matrix(.41783748,0,0,.41643197,102.114299,81.495349)" d="M 127.74 0 L 115.7 0 C 110.09 0 105.5 4.59 105.5 10.2 C 105.5 15.809999 110.09 20.4 115.7 20.4 L 127.74 20.4 C 133.34999 20.4 137.94 15.809999 137.94 10.2 C 137.94 4.5899999 133.35 0 127.740009 0 L 127.74 0 Z " fill="#f054b0" fill-rule="evenodd"/>
<path transform="matrix(.41783748,0,0,.41643197,102.114299,81.495349)" d="M 70.72 163.48 L 58.68 163.48 C 53.07 163.48 48.48 168.06999 48.48 173.68 C 48.48 179.29 53.07 183.87999 58.68 183.87999 L 70.72 183.87999 C 76.33 183.87999 80.92 179.29 80.92 173.68 C 80.92 168.06999 76.33 163.48 70.72 163.48 Z " fill="#f054b0" fill-rule="evenodd"/>
<path transform="matrix(.41783748,0,0,.41643197,102.114299,81.495349)" d="M 22.24 81.84 L 10.2 81.84 C 4.5899999 81.84 0 86.42999 0 92.03999 C 0 97.649997 4.59 102.23999 10.2 102.23999 L 22.24 102.23999 C 27.85 102.23999 32.44 97.649997 32.44 92.03999 C 32.44 86.42999 27.849999 81.84 22.239998 81.84 L 22.24 81.84 Z " fill="#f054b0" fill-rule="evenodd"/>
</g>
<clipPath id="cp4">
<path transform="matrix(.24,0,0,.24,0,0)" d="M 0 0 L 1562.5 0 L 1562.5 1562.5 L 0 1562.5 Z " fill-rule="evenodd"/>
</clipPath>
<g clip-path="url(#cp4)">
<g id="Layer-1" data-name="P">
</g>
<text fill="#ffffff" xml:space="preserve" transform="matrix(.75 0 0 .75 11.24477 187.6469)" font-size="77.33" font-family="Alice"><tspan y="79" x="99.0625 145.76874 173.9162 224.41152 268.56593 319.06123">PIXLAR</tspan></text>
<g id="Layer-1" data-name="P">
</g>
<text fill="#f054b0" xml:space="preserve" transform="matrix(.75 0 0 .75 22.956757 260.87528)" font-size="26.28" font-family="TenorSans"><tspan y="26" x="16.25 45.300905 68.7047 85.83101 106.004138 123.13045 133.63782 150.76413 162.8737 180.00002 197.12633 207.6337 235.89664 253.02295 270.14927 288.98286 306.71327 317.2206 338.4706 362.50477 379.63108 403.66523">WHERE LIFE MEETS COLOR</tspan></text>
</g>
</g>
</svg>
